<svg xmlns="http://www.w3.org/2000/svg" viewBox="0 0 200 200">
	<circle fill="rgb(250 0 100)" cx="100" cy="100" r="100"/>
	<circle fill="rgb(250 250 250)" cx="110" cy="35" r="15"/>
	<path fill="rgb(250 250 250)" d="M67.55 180c-2.315 0-4.113-.755-5.393-2.264-1.279-1.51-1.615-3.412-1.005-5.707L80.53 74.207l-15.722 7.246v17.209c0 2.053-.762 3.774-2.285 5.163-1.524 1.389-3.199 2.083-5.028 2.083-2.193 0-3.991-.724-5.393-2.173-1.401-1.45-2.102-3.201-2.102-5.254V82.902c0-3.382.975-6.461 2.925-9.239 1.95-2.778 4.57-4.831 7.861-6.159l27.057-11.232c3.9-1.449 7.891-1.66 11.974-.634 4.083 1.027 7.404 3.11 9.964 6.25l8.043 11.956c2.56 4.106 6.064 7.76 10.512 10.96 4.449 3.2 9.72 5.163 15.814 5.888 1.706.362 3.108 1.177 4.205 2.445 1.097 1.268 1.645 2.748 1.645 4.438 0 2.416-.853 4.378-2.559 5.888-1.707 1.509-3.596 2.143-5.668 1.902-6.337-.725-12.126-2.717-17.367-5.978-5.241-3.261-10.116-7.79-14.625-13.587l-6.582 23.913 11.152 9.963c1.706 1.691 3.016 3.593 3.931 5.706.914 2.114 1.371 4.257 1.371 6.431v40.941c0 2.053-.701 3.774-2.103 5.163-1.401 1.389-3.077 2.083-5.027 2.083-1.95 0-3.656-.694-5.119-2.083-1.463-1.389-2.194-3.11-2.194-5.163v-37.136l-17.002-14.855-12.431 53.078c-.488 1.811-1.493 3.291-3.016 4.438C71.237 179.426 69.5 180 67.55 180Z"/>
</svg>
